<?xml version="1.0" encoding="utf-8"?>
<!-- Svg Vector Icons : http://www.onlinewebfonts.com/icon -->
<!DOCTYPE svg PUBLIC "-//W3C//DTD SVG 1.1//EN" "http://www.w3.org/Graphics/SVG/1.1/DTD/svg11.dtd">
<svg version="1.1" xmlns="http://www.w3.org/2000/svg" xmlns:xlink="http://www.w3.org/1999/xlink" x="0px" y="0px" viewBox="0 0 1000 1000" enable-background="new 0 0 1000 1000" xml:space="preserve">
<metadata> Svg Vector Icons : http://www.onlinewebfonts.com/icon </metadata>
<g><path d="M500,990c-170,0-341.5-46.2-341.5-149.6c0-80.7,117.5-130.7,226.6-143l6-0.7L240.2,454.5c-4.9-8.7-9.4-18-13.5-27.4l-4-8.1l-0.6-3.2c-13.2-34.4-20-70.5-20-107.1C202,144,335.7,10,499.9,10c164.3,0,297.9,134,297.9,298.7c0,36.7-6.7,72.7-20,107.1l-2,5.2h0.2l-1.6,3.2c-4.4,10.3-9.2,20.1-14.4,29.5L499.7,886.8l-61.6-101l-2.3,0.2c-99.9,8.6-163.6,36.2-180.3,51.6l-2.9,2.8l3,2.8c21.8,20.3,105.5,52.4,238.4,53.3h11.9l0,0c132.6-0.9,216.5-33,238.5-53.2l3.1-2.8l-3.2-2.8c-12.2-10.8-56.6-32.2-124.9-44.7l52.5-84.2c109.5,24.8,169.7,71.5,169.7,131.7C841.5,943.8,670,990,500,990L500,990L500,990z M500,147.5c-70,0-127,57.2-127,127.4c0,70.2,57,127.3,127,127.3c70.1,0,127.1-57.1,127.1-127.3C627.1,204.7,570.1,147.5,500,147.5L500,147.5L500,147.5z"/></g>
</svg>